<svg xmlns="http://www.w3.org/2000/svg" version="1.1" xmlns:xlink="http://www.w3.org/1999/xlink" xmlns:svgjs="http://svgjs.dev/svgjs" width="1440" height="560" preserveAspectRatio="none" viewBox="0 0 1440 560"><g mask="url(&quot;#SvgjsMask1118&quot;)" fill="none"><rect width="1440" height="560" x="0" y="0" fill="url(&quot;#SvgjsLinearGradient1119&quot;)"></rect><path d="M1440 0L1166.13 0L1440 13.95z" fill="rgba(255, 255, 255, .1)"></path><path d="M1166.13 0L1440 13.95L1440 238.82L611.3500000000001 0z" fill="rgba(255, 255, 255, .075)"></path><path d="M611.35 0L1440 238.82L1440 304.65L309.62 0z" fill="rgba(255, 255, 255, .05)"></path><path d="M309.6199999999999 0L1440 304.65L1440 310.48999999999995L117.83999999999989 0z" fill="rgba(255, 255, 255, .025)"></path><path d="M0 560L54.75 560L0 457.68z" fill="rgba(0, 0, 0, .1)"></path><path d="M0 457.68L54.75 560L429.9 560L0 352.39z" fill="rgba(0, 0, 0, .075)"></path><path d="M0 352.39L429.9 560L528.0799999999999 560L0 240.15999999999997z" fill="rgba(0, 0, 0, .05)"></path><path d="M0 240.15999999999997L528.0799999999999 560L716.56 560L0 82.39999999999998z" fill="rgba(0, 0, 0, .025)"></path></g><defs><mask id="SvgjsMask1118"><rect width="1440" height="560" fill="#ffffff"></rect></mask><linearGradient x1="15.28%" y1="139.29%" x2="84.72%" y2="-39.29%" gradientUnits="userSpaceOnUse" id="SvgjsLinearGradient1119"><stop stop-color="#0e2a47" offset="0"></stop><stop stop-color="rgba(120, 255, 224, 1)" offset="1"></stop></linearGradient></defs></svg>